<svg width="199" height="25" viewBox="0 0 199 25" fill="none" xmlns="http://www.w3.org/2000/svg">
<path d="M11 1.5L13.4697 9.10081H21.4616L14.996 13.7984L17.4656 21.3992L11 16.7016L4.53436 21.3992L7.00402 13.7984L0.538379 9.10081H8.53035L11 1.5Z" fill="#EDD146"/>
<path d="M43 1.5L45.4697 9.10081H53.4616L46.996 13.7984L49.4656 21.3992L43 16.7016L36.5344 21.3992L39.004 13.7984L32.5384 9.10081H40.5303L43 1.5Z" fill="#EDD146"/>
<path d="M75 1.5L77.4697 9.10081H85.4616L78.996 13.7984L81.4656 21.3992L75 16.7016L68.5344 21.3992L71.004 13.7984L64.5384 9.10081H72.5303L75 1.5Z" fill="#EDD146"/>
<path d="M112 1.5L114.47 9.10081H122.462L115.996 13.7984L118.466 21.3992L112 16.7016L105.534 21.3992L108.004 13.7984L101.538 9.10081H109.53L112 1.5Z" fill="#EDD146"/>
<path d="M149 1.5L151.47 9.10081H159.462L152.996 13.7984L155.466 21.3992L149 16.7016L142.534 21.3992L145.004 13.7984L138.538 9.10081H146.53L149 1.5Z" fill="#EDD146"/>
<path d="M178.779 19.1758C178.064 19.1758 177.426 19.1055 176.863 18.9648C176.301 18.8242 175.812 18.6455 175.396 18.4287V17.5498C175.794 17.7725 176.295 17.9717 176.898 18.1475C177.502 18.3174 178.135 18.4023 178.797 18.4023C179.377 18.4023 179.898 18.3262 180.361 18.1738C180.824 18.0156 181.217 17.7988 181.539 17.5234C181.867 17.248 182.116 16.9199 182.286 16.5391C182.456 16.1523 182.541 15.7246 182.541 15.2559C182.541 14.6934 182.415 14.2246 182.163 13.8496C181.917 13.4746 181.565 13.1934 181.108 13.0059C180.657 12.8184 180.118 12.7246 179.491 12.7246H178.182L178.331 11.9512H179.667C180.136 11.9512 180.599 11.8867 181.056 11.7578C181.513 11.6289 181.929 11.4355 182.304 11.1777C182.679 10.9199 182.978 10.5918 183.2 10.1934C183.429 9.79492 183.543 9.32617 183.543 8.78711C183.543 8.16602 183.335 7.6709 182.919 7.30176C182.509 6.93262 181.979 6.74805 181.328 6.74805C180.719 6.74805 180.136 6.85059 179.579 7.05566C179.022 7.26074 178.463 7.55371 177.9 7.93457L177.479 7.27539C178.029 6.88867 178.627 6.5752 179.271 6.33496C179.922 6.08887 180.628 5.96582 181.39 5.96582C182.017 5.96582 182.559 6.08301 183.016 6.31738C183.473 6.5459 183.824 6.86816 184.07 7.28418C184.322 7.7002 184.448 8.17773 184.448 8.7168C184.448 9.37891 184.302 9.96191 184.009 10.4658C183.716 10.9639 183.32 11.3711 182.822 11.6875C182.33 12.0039 181.779 12.2178 181.17 12.3291V12.3818C181.861 12.5107 182.418 12.8213 182.84 13.3135C183.262 13.8057 183.473 14.4443 183.473 15.2295C183.473 15.7803 183.37 16.2959 183.165 16.7764C182.96 17.251 182.658 17.6699 182.26 18.0332C181.861 18.3906 181.369 18.6719 180.783 18.877C180.203 19.0762 179.535 19.1758 178.779 19.1758ZM186.021 19.1846C185.828 19.1846 185.679 19.1318 185.573 19.0264C185.468 18.9209 185.415 18.7715 185.415 18.5781C185.415 18.332 185.482 18.1035 185.617 17.8926C185.758 17.6816 185.975 17.5762 186.268 17.5762C186.455 17.5762 186.599 17.6318 186.698 17.7432C186.798 17.8545 186.848 18.001 186.848 18.1826C186.848 18.4229 186.777 18.6514 186.637 18.8682C186.502 19.0791 186.297 19.1846 186.021 19.1846ZM192.675 19.1758C192.276 19.1758 191.893 19.1465 191.523 19.0879C191.154 19.0293 190.814 18.9443 190.504 18.833C190.193 18.7217 189.921 18.5928 189.687 18.4463V17.5322C190.056 17.7842 190.507 17.9922 191.04 18.1562C191.579 18.3203 192.133 18.4023 192.701 18.4023C193.293 18.4023 193.835 18.3203 194.327 18.1562C194.819 17.9863 195.244 17.7402 195.602 17.418C195.959 17.0957 196.234 16.7031 196.428 16.2402C196.621 15.7715 196.718 15.2354 196.718 14.6318C196.718 13.8291 196.478 13.1904 195.997 12.7158C195.522 12.2412 194.849 12.0039 193.976 12.0039C193.513 12.0039 193.103 12.0391 192.745 12.1094C192.388 12.1738 191.995 12.2646 191.567 12.3818L191.146 12.0303L192.886 6.15039H198.669L198.502 6.97656H193.492L192.13 11.5293C192.394 11.459 192.689 11.3945 193.018 11.3359C193.346 11.2773 193.738 11.248 194.195 11.248C194.887 11.248 195.49 11.3857 196.006 11.6611C196.521 11.9307 196.923 12.3115 197.21 12.8037C197.497 13.2959 197.641 13.876 197.641 14.5439C197.641 15.2354 197.526 15.8652 197.298 16.4336C197.069 16.9961 196.738 17.4824 196.305 17.8926C195.877 18.3027 195.355 18.6191 194.74 18.8418C194.131 19.0645 193.442 19.1758 192.675 19.1758Z" fill="#807D7E"/>
</svg>
